<?xml version="1.0" standalone="no"?>
<!DOCTYPE svg PUBLIC "-//W3C//DTD SVG 1.1//EN" "http://www.w3.org/Graphics/SVG/1.1/DTD/svg11.dtd" >
<svg xmlns="http://www.w3.org/2000/svg">
<metadata></metadata>
<defs>
<font id="tr_lucida_sans_unicoderegular" horiz-adv-x="1295" >
<font-face units-per-em="2048" ascent="1638" descent="-410" />
<missing-glyph horiz-adv-x="648" />
<glyph horiz-adv-x="0" />
<glyph unicode="&#xd;" horiz-adv-x="648" />
<glyph unicode=" "  horiz-adv-x="648" />
<glyph unicode="&#x09;" horiz-adv-x="648" />
<glyph unicode="&#xa0;" horiz-adv-x="648" />
<glyph unicode="!" horiz-adv-x="648" d="M225 0v197h197v-197h-197zM225 1184v296h197v-296l-24 -789h-148z" />
<glyph unicode="&#x22;" horiz-adv-x="765" d="M111 1579h197l-24 -493h-148zM456 1579h198l-25 -493h-148z" />
<glyph unicode="#" d="M15 444l25 124h305l87 345h-324l25 123h329l112 444h127l-111 -444h263l111 444h128l-111 -444h299l-24 -123h-306l-87 -345h324l-25 -124h-329l-111 -444h-128l111 444h-263l-111 -444h-128l111 444h-299zM473 568h263l87 345h-264z" />
<glyph unicode="$" d="M216 83v170q226 -105 395 -105v531q-173 105 -241 178q-111 117 -111 268q0 153 101 250q96 93 251 105v124h98v-124q146 0 321 -67v-161q-192 83 -321 93v-527q25 -15 81 -49q135 -81 187 -141q78 -88 78 -214q0 -160 -94 -270t-252 -144v-123h-98v123q-176 0 -395 83z M432 1129q0 -85 53 -147q35 -41 126 -99v456q-179 -56 -179 -210zM709 160q173 62 173 225q0 81 -52 140q-29 33 -121 96v-461z" />
<glyph unicode="%" horiz-adv-x="1369" d="M12 1110q0 160 76 260q84 110 239 110q154 0 238 -111q76 -99 76 -259q0 -159 -76 -259q-84 -111 -238 -111q-155 0 -239 111q-76 99 -76 259zM24 -37l1166 1554h154l-1165 -1554h-155zM160 1110q0 -102 33 -175q44 -96 134 -96t133 97q33 72 33 174t-33 175 q-43 97 -133 97q-91 0 -134 -97q-33 -72 -33 -175zM728 370q0 160 76 259q83 111 238 111t239 -111q76 -99 76 -259t-76 -259q-84 -111 -239 -111t-238 111q-76 99 -76 259zM876 370q0 -102 33 -174q43 -97 133 -97q91 0 134 96q33 72 33 175t-33 175q-43 97 -134 97 q-90 0 -133 -97q-33 -73 -33 -175z" />
<glyph unicode="&#x26;" horiz-adv-x="1428" d="M74 440q0 342 361 464q-100 181 -100 301q0 139 112 229q104 83 246 83q139 0 232 -79q99 -84 99 -220q0 -222 -325 -386q149 -264 347 -493q94 138 91 376l-1 72h196q0 -328 -196 -566q90 -114 205 -221h-280l-73 88q-164 -125 -383 -125q-223 0 -372 125 q-159 134 -159 352zM271 488q0 -156 105 -266.5t261 -110.5q139 0 265 91q-210 258 -400 585q-231 -92 -231 -299zM533 1214q0 -102 94 -257q212 97 212 258q0 70 -42 112t-112 42t-111 -42.5t-41 -112.5z" />
<glyph unicode="'" horiz-adv-x="469" d="M111 1579h247l-50 -543h-148z" />
<glyph unicode="(" horiz-adv-x="666" d="M123 642q0 278 121 527q126 259 348 410v-136q-155 -169 -218 -371q-54 -174 -54 -430t54 -430q63 -203 218 -372v-136q-223 152 -348 411q-121 248 -121 527z" />
<glyph unicode=")" horiz-adv-x="666" d="M74 -160q155 169 217 372q54 174 54 430t-54 430q-62 204 -217 371v136q222 -151 348 -410q121 -249 121 -527q0 -279 -121 -527q-125 -259 -348 -411v136z" />
<glyph unicode="*" horiz-adv-x="987" d="M110 1148l46 141l284 -125q-29 -25 -29 -67l2 -15zM211 838l206 231q20 -45 70 -51l-156 -267zM420 1480h148l-31 -308q-18 11 -43 11t-43 -11zM500 1018q51 6 70 51l207 -231l-120 -87zM548 1164l284 125l45 -141l-303 -66l3 15q0 41 -29 67z" />
<glyph unicode="+" horiz-adv-x="1628" d="M222 543v99h543v542h99v-542h542v-99h-542v-543h-99v543h-543z" />
<glyph unicode="," horiz-adv-x="648" d="M200 0v247h247v-214q0 -329 -247 -354v74q96 27 96 227v20h-96z" />
<glyph unicode="-" horiz-adv-x="1185" d="M148 543v123h888v-123h-888z" />
<glyph unicode="." horiz-adv-x="648" d="M200 0v247h247v-247h-247z" />
<glyph unicode="/" horiz-adv-x="1074" d="M222 -296l526 1777h104l-526 -1777h-104z" />
<glyph unicode="0" d="M130 740q0 296 110 508q139 269 408 269q270 0 409 -268q109 -212 109 -509t-110 -509q-138 -268 -408 -268q-269 0 -408 269q-110 212 -110 508zM340 740q0 -629 308 -629q309 0 309 629t-309 629q-308 0 -308 -629z" />
<glyph unicode="1" d="M302 1332v124l432 37v-1493h-198v1332h-234z" />
<glyph unicode="2" d="M170 0v173q88 206 348 438l113 101q218 195 218 391q0 127 -77 198q-75 68 -203 68q-153 0 -362 -119v174q197 93 392 93q199 0 324 -103q135 -112 135 -306q0 -150 -91 -276q-58 -81 -209 -210l-76 -65q-237 -203 -274 -384h643v-173h-881z" />
<glyph unicode="3" d="M208 11v184q211 -84 332 -84q139 0 227 78q93 81 93 218q0 312 -437 312h-78v133l69 1q410 6 410 289q0 227 -272 227q-146 0 -324 -83v172q175 59 337 59q457 0 457 -343q0 -261 -309 -372q358 -83 358 -392q0 -221 -151 -340q-138 -107 -366 -107q-137 0 -346 48z" />
<glyph unicode="4" d="M105 419v149l666 912h185v-900h198v-161h-198v-419h-185v419h-666zM298 580h486v658z" />
<glyph unicode="5" d="M249 -6v176q147 -59 280 -59q148 0 232 88q81 86 81 235q0 333 -459 333q-52 0 -109 -7v720h749v-172h-576v-390q262 0 422 -113q183 -130 183 -381q0 -231 -163 -353q-145 -108 -384 -108q-114 0 -256 31z" />
<glyph unicode="6" d="M137 707q0 469 241 690q132 121 362 121q134 0 332 -56v-172q-209 80 -344 80q-376 0 -376 -603q141 183 355 183q198 0 321 -131q120 -128 120 -327q0 -225 -132 -374q-137 -155 -359 -155q-277 0 -413 246q-107 196 -107 498zM360 522q0 -166 71 -278q84 -133 241 -133 q139 0 213 105q65 92 65 237q0 150 -65 245q-76 110 -219 110q-123 0 -213 -81q-93 -83 -93 -205z" />
<glyph unicode="7" d="M222 1295v185h950v-185q-569 -839 -637 -1295h-227q30 181 100 337q51 114 172 308l404 650h-762z" />
<glyph unicode="8" d="M177 364q0 266 294 442q-110 76 -156 139q-61 83 -61 195q0 180 135 284q124 94 309 94q165 0 279 -76q131 -87 131 -244q0 -215 -276 -392q335 -164 335 -423q0 -199 -155 -315q-140 -105 -345 -105q-203 0 -338 97q-152 109 -152 304zM374 395q0 -130 83 -207t215 -77 q120 0 201 59q91 67 91 182q0 99 -80 176q-44 43 -166 115l-140 83q-107 -83 -147 -140q-57 -80 -57 -191zM433 1177q0 -100 102 -188q51 -44 187 -121q207 136 207 303q0 97 -80 151q-69 47 -171 47q-98 0 -167 -46q-78 -52 -78 -146z" />
<glyph unicode="9" d="M156 991q0 221 132 370q137 156 355 156q272 0 408 -237q111 -192 111 -486q0 -195 -57 -374q-66 -206 -190 -322q-145 -135 -381 -135q-116 0 -301 46v167q188 -65 320 -65q213 0 314 202q77 154 77 390q-150 -185 -341 -185q-193 0 -322 141q-125 137 -125 332z M353 1025q0 -152 65 -250q75 -115 220 -115q124 0 213.5 83.5t89.5 206.5q0 167 -70 282q-84 138 -240 138q-141 0 -214 -106q-64 -91 -64 -239z" />
<glyph unicode=":" horiz-adv-x="648" d="M225 0v197h197v-197h-197zM225 888v198h197v-198h-197z" />
<glyph unicode=";" horiz-adv-x="648" d="M225 0v197h197v-166q0 -303 -197 -352v74q71 37 71 224v23h-71zM225 888v198h197v-198h-197z" />
<glyph unicode="&#x3c;" horiz-adv-x="1628" d="M222 592l1184 592v-110l-961 -483l961 -481v-110z" />
<glyph unicode="=" horiz-adv-x="1628" d="M222 358v98h1184v-98h-1184zM222 728v99h1184v-99h-1184z" />
<glyph unicode="&#x3e;" horiz-adv-x="1628" d="M222 0v110l962 483l-962 481v110l1184 -592z" />
<glyph unicode="?" horiz-adv-x="864" d="M37 1295v167q185 56 348 56q182 0 301 -76q141 -91 141 -263q0 -96 -47 -172q-34 -55 -120 -136l-62 -58q-86 -80 -115 -136q-36 -67 -36 -172v-110h-197v54q0 115 35 195q30 69 112 164l63 73q157 182 157 295q0 99 -83 150q-69 43 -174 43q-151 0 -323 -74zM250 0v197 h197v-197h-197z" />
<glyph unicode="@" horiz-adv-x="1758" d="M93 576q0 339 244 620q128 148 313 234.5t378 86.5q276 0 463 -175q193 -179 193 -452q0 -234 -139 -408q-149 -186 -378 -186q-167 0 -167 115q0 39 21 105l40 126h-12q-181 -346 -387 -346q-93 0 -145 67q-48 61 -48 157q0 142 71.5 300.5t178.5 251.5q122 106 275 106 q26 0 78.5 -3t78.5 -3h137l-126 -636q-6 -30 -6 -62q0 -67 76 -67q151 0 253 163q88 143 88 303q0 236 -163 387q-159 147 -397 147q-322 0 -565.5 -249t-243.5 -572q0 -233 161 -376q155 -136 391 -136q157 0 301 72l36 -102q-180 -81 -353 -81q-276 0 -459 167 q-188 173 -188 446zM623 561q0 -142 83 -142q78 0 210 173q82 108 157 241l39 195q-92 33 -160 33q-189 0 -280 -245q-49 -130 -49 -255z" />
<glyph unicode="A" horiz-adv-x="1413" d="M17 0l587 1480h208l578 -1480h-227l-161 410h-627l-163 -410h-195zM436 566h505l-252 638z" />
<glyph unicode="B" horiz-adv-x="1178" d="M191 0v1480h384q459 0 459 -326q0 -268 -304 -383q363 -111 363 -401q0 -130 -80 -231q-68 -85 -174 -116q-77 -23 -212 -23h-436zM399 157h43q231 0 299 29q130 55 130 204q0 148 -138 234q-118 73 -275 73h-59v-540zM399 830h67q154 0 245 60q108 72 108 217 q0 216 -338 216h-82v-493z" />
<glyph unicode="C" horiz-adv-x="1417" d="M104 739q0 363 183 566q191 212 549 212q198 0 465 -65v-197q-304 105 -469 105q-261 0 -392 -188q-113 -162 -113 -435q0 -268 127 -431q140 -179 400 -179q209 0 449 129v-180q-219 -113 -478 -113q-356 0 -543 213q-178 202 -178 563z" />
<glyph unicode="D" horiz-adv-x="1534" d="M191 0v1480h492q199 0 323 -38q160 -50 267 -177q157 -186 157 -490q0 -342 -184 -556q-107 -124 -253 -176q-123 -43 -307 -43h-495zM401 157h269q287 0 408 155q129 166 129 443q0 261 -127 410q-88 104 -231 137q-90 21 -275 21h-173v-1166z" />
<glyph unicode="E" horiz-adv-x="1110" d="M191 0v1480h827v-157h-617v-475h517v-155h-517v-536h660v-157h-870z" />
<glyph unicode="F" horiz-adv-x="1098" d="M191 0v1480h827v-157h-617v-496h518v-155h-518v-672h-210z" />
<glyph unicode="G" horiz-adv-x="1480" d="M104 740q0 361 183 565q190 212 547 212q223 0 467 -67v-194q-306 104 -469 104q-260 0 -391 -187q-114 -162 -114 -434q0 -278 129 -440q141 -179 411 -179q105 0 227 37v482h209v-599q-269 -77 -469 -77q-362 0 -550 210q-180 200 -180 567z" />
<glyph unicode="H" horiz-adv-x="1505" d="M191 0v1480h210v-624h704v624h210v-1480h-210v699h-704v-699h-210z" />
<glyph unicode="I" horiz-adv-x="590" d="M190 0v1480h210v-1480h-210z" />
<glyph unicode="J" horiz-adv-x="637" d="M-184 -89q120 -39 214 -39q132 0 180 93q33 66 33 215v1300h210v-1293q0 -483 -457 -483q-70 0 -180 21v186z" />
<glyph unicode="K" horiz-adv-x="1337" d="M191 0v1480h197v-728l599 728h211l-580 -706l683 -774h-266l-647 750v-750h-197z" />
<glyph unicode="L" horiz-adv-x="1092" d="M191 0v1480h210v-1323h666v-157h-876z" />
<glyph unicode="M" horiz-adv-x="1764" d="M191 0v1480h291l410 -1145l422 1145h260v-1480h-196v1204l-408 -1105h-203l-396 1108v-1207h-180z" />
<glyph unicode="N" horiz-adv-x="1513" d="M191 0v1480h206l745 -1143v1143h180v-1480h-205l-746 1143v-1143h-180z" />
<glyph unicode="O" horiz-adv-x="1591" d="M104 740q0 338 174 550q187 227 518 227t518 -227q174 -212 174 -550t-174 -550q-187 -227 -518 -227t-518 227q-174 212 -174 550zM327 742q0 -261 101 -425q123 -197 368 -197t368 197q101 164 101 425q0 260 -102 423q-122 195 -367 195t-367 -195 q-102 -163 -102 -423z" />
<glyph unicode="P" horiz-adv-x="1132" d="M191 0v1480h403q148 0 229 -18q125 -29 194 -111q79 -95 79 -259q0 -254 -180 -386q-160 -118 -424 -118h-93v-588h-208zM399 747h85q175 0 277 76q114 85 114 254q0 147 -106 204q-77 42 -241 42h-129v-576z" />
<glyph unicode="Q" horiz-adv-x="1591" d="M104 740q0 338 174 550q187 227 518 227q332 0 519 -228q173 -212 173 -552q0 -510 -379 -706q255 -112 529 -160l-133 -167q-349 113 -585 269q-94 -10 -145 -10q-317 0 -502 235q-169 216 -169 542zM327 742q0 -261 101 -425q123 -197 368 -197t367 196 q102 163 102 424t-101 424q-123 196 -368 196t-367 -195q-102 -163 -102 -423z" />
<glyph unicode="R" d="M191 0v1480h448q440 0 440 -367q0 -296 -299 -420l494 -693h-258l-421 626h-196v-626h-208zM399 783h68q396 0 396 310q0 230 -332 230h-132v-540z" />
<glyph unicode="S" horiz-adv-x="1103" d="M100 28v208q250 -116 412 -116q115 0 191 59q83 65 83 177q0 100 -72 173q-44 44 -160 111l-102 59q-163 94 -235 168q-109 113 -109 257q0 180 132 290q124 103 308 103q171 0 361 -57v-192q-234 92 -349 92q-100 0 -171 -51q-80 -57 -80 -153q0 -87 83 -162 q46 -41 159 -105l106 -60q167 -94 239 -173q105 -113 105 -266q0 -209 -160 -324q-142 -103 -359 -103q-150 0 -382 65z" />
<glyph unicode="T" d="M18 1323v157h1260v-157h-525v-1323h-210v1323h-525z" />
<glyph unicode="U" horiz-adv-x="1419" d="M179 548v932h210v-934q0 -205 69 -306q82 -120 276 -120q191 0 265 119q58 93 58 300v941h184v-938q0 -172 -28 -265q-38 -129 -147 -216q-123 -98 -341 -98q-288 0 -421 150q-125 142 -125 435z" />
<glyph unicode="V" horiz-adv-x="1339" d="M36 1480h210l458 -1212l442 1212h184l-537 -1480h-198z" />
<glyph unicode="W" horiz-adv-x="1752" d="M2 1480h202l303 -1169l279 1169h202l264 -1153l326 1153h171l-415 -1480h-209l-261 1141l-273 -1141h-208z" />
<glyph unicode="X" horiz-adv-x="1282" d="M16 0l491 743l-467 737h248l356 -558l374 558h198l-473 -715l485 -765h-248l-376 587l-389 -587h-199z" />
<glyph unicode="Y" horiz-adv-x="1276" d="M17 1480h240l384 -668l414 668h195l-529 -858v-622h-210v618z" />
<glyph unicode="Z" horiz-adv-x="1238" d="M95 0v168l795 1155h-746v157h998v-157l-795 -1155h795v-168h-1047z" />
<glyph unicode="[" horiz-adv-x="666" d="M197 -296v1875h395v-148h-222v-1579h222v-148h-395z" />
<glyph unicode="\" horiz-adv-x="1074" d="M222 1481h104l526 -1777h-104z" />
<glyph unicode="]" horiz-adv-x="666" d="M74 -148h222v1579h-222v148h395v-1875h-395v148z" />
<glyph unicode="^" d="M105 395l543 1085l543 -1085h-166l-377 754l-377 -754h-166z" />
<glyph unicode="_" horiz-adv-x="1024" d="M86 0h851v-148h-851v148z" />
<glyph unicode="`" horiz-adv-x="1258" d="M395 1604h228l241 -321h-148z" />
<glyph unicode="a" horiz-adv-x="1131" d="M103 273q0 207 198 300q147 69 381 69h46v131q0 189 -197 189q-153 0 -334 -96v163q199 81 375 81q353 0 353 -337v-492q0 -169 104 -169q13 0 38 4l14 -109q-67 -32 -148 -32q-138 0 -176 163q-177 -163 -341 -163q-133 0 -223 83t-90 215zM300 305q0 -72 50 -120.5 t122 -48.5q123 0 256 109v281l-63 2h-22q-142 0 -242 -61q-101 -61 -101 -162z" />
<glyph unicode="b" horiz-adv-x="1289" d="M197 -12v1591h197v-697q121 228 363 228q214 0 326 -166q95 -142 95 -368q0 -243 -107 -408q-126 -193 -356 -193q-193 0 -321 148l-24 -135h-173zM394 259q152 -136 290 -136q157 0 229 147q55 111 55 286q0 382 -252 382q-165 0 -322 -179v-500z" />
<glyph unicode="c" horiz-adv-x="1049" d="M111 549q0 262 141.5 411.5t402.5 149.5q127 0 284 -35v-165q-167 49 -272 49q-166 0 -255 -130q-79 -113 -79 -286q0 -170 83 -283q93 -126 257 -126q135 0 278 69v-170q-191 -58 -330 -58q-232 0 -376 174q-134 163 -134 400z" />
<glyph unicode="d" horiz-adv-x="1289" d="M111 509q0 243 107 408q126 193 356 193q193 0 320 -148v617h198v-1579h-198v204q-120 -229 -362 -229q-214 0 -326 166q-95 142 -95 368zM321 529q0 -381 252 -381q164 0 321 179v500q-153 135 -290 135q-156 0 -229 -147q-54 -111 -54 -286z" />
<glyph unicode="e" horiz-adv-x="1141" d="M111 548q0 231 120 389q132 174 355 174q197 0 305 -140q107 -142 107 -382v-17l-1 -60h-685q43 -387 379 -387q123 0 302 66v-156q-198 -60 -339 -60q-247 0 -397 164q-146 159 -146 409zM321 660h479q0 303 -226 303q-227 0 -253 -303z" />
<glyph unicode="f" horiz-adv-x="753" d="M80 938v148h154v130q0 388 354 388q99 0 225 -33v-156q-133 41 -213 41q-105 0 -141 -60q-27 -44 -27 -159v-151h271v-148h-271v-938h-198v938h-154z" />
<glyph unicode="g" horiz-adv-x="1277" d="M111 550q0 231 117 387q129 173 353 173q182 0 313 -148v124h198v-790q0 -211 -13 -303q-26 -182 -113 -275q-129 -137 -403 -137q-188 0 -362 58l23 171q171 -81 338 -81q332 0 332 353v171q-108 -228 -356 -228q-213 0 -327 161q-100 141 -100 364zM321 551 q0 -354 251 -354q171 0 322 179v451q-130 135 -283 135q-154 0 -230 -135q-60 -108 -60 -276z" />
<glyph unicode="h" horiz-adv-x="1271" d="M197 0v1579h197v-697q156 228 382 228q146 0 229 -93q80 -89 80 -237v-780h-197v716q0 105 -25 154q-35 70 -128 70q-181 0 -341 -237v-703h-197z" />
<glyph unicode="i" horiz-adv-x="592" d="M197 0v1086h197v-1086h-197zM197 1283v197h197v-197h-197z" />
<glyph unicode="j" horiz-adv-x="623" d="M-153 -213q138 -58 210 -58q82 0 127 44q36 35 43 107q2 15 2 120v1086h198v-1086q0 -419 -354 -419q-105 0 -226 50v156zM229 1283v197h198v-197h-198z" />
<glyph unicode="k" horiz-adv-x="1197" d="M197 0v1579h197v-1020l460 527h212l-439 -507l530 -579h-252l-511 557v-557h-197z" />
<glyph unicode="l" horiz-adv-x="592" d="M197 0v1579h197v-1579h-197z" />
<glyph unicode="m" horiz-adv-x="1912" d="M197 0v1086h197v-204q144 228 370 228q218 0 297 -228q140 229 364 229q147 0 226 -88q76 -84 76 -233v-790h-198v759q0 186 -147 186q-153 0 -321 -217v-728h-198v759q0 187 -150 187q-149 0 -319 -218v-728h-197z" />
<glyph unicode="n" horiz-adv-x="1271" d="M197 0v1086h197v-204q156 228 382 228q146 0 229 -93q80 -89 80 -237v-780h-197v716q0 105 -25 154q-35 70 -128 70q-181 0 -341 -237v-703h-197z" />
<glyph unicode="o" horiz-adv-x="1258" d="M111 543q0 253 131 405q138 162 387 162t387 -162q131 -152 131 -405t-131 -406q-138 -162 -387 -162t-387 162q-131 153 -131 406zM321 543q0 -177 64 -286q80 -134 244 -134t244 134q65 109 65 286t-65 285q-80 134 -244 134t-244 -134q-64 -108 -64 -285z" />
<glyph unicode="p" horiz-adv-x="1289" d="M197 -395v1481h197v-204q121 228 363 228q214 0 326 -166q95 -142 95 -368q0 -243 -107 -408q-126 -193 -356 -193q-193 0 -321 148v-518h-197zM394 259q152 -136 290 -136q157 0 229 147q55 111 55 286q0 382 -252 382q-165 0 -322 -179v-500z" />
<glyph unicode="q" horiz-adv-x="1289" d="M111 509q0 243 107 408q126 193 356 193q193 0 320 -148v124h198v-1481h-198v599q-120 -229 -362 -229q-214 0 -326 166q-95 142 -95 368zM321 529q0 -381 252 -381q164 0 321 179v500q-153 135 -290 135q-156 0 -229 -147q-54 -111 -54 -286z" />
<glyph unicode="r" horiz-adv-x="838" d="M197 0v1086h197v-204q117 228 340 228q30 0 63 -5v-184q-51 17 -90 17q-187 0 -313 -222v-716h-197z" />
<glyph unicode="s" horiz-adv-x="1044" d="M157 38v181q193 -96 336 -96q78 0 134 41q63 45 63 120q0 100 -157 167l-115 49q-255 109 -255 305q0 154 115 235q100 70 261 70q97 0 225 -25l41 -8v-164q-165 49 -263 49q-76 0 -127 -30q-62 -37 -62 -108q0 -89 144 -150l95 -40q141 -59 205 -120q90 -85 90 -212 q0 -156 -127 -246q-113 -81 -275 -81q-135 0 -328 63z" />
<glyph unicode="t" horiz-adv-x="766" d="M69 938v148h136v197l197 19v-216h284v-148h-284v-602q0 -213 184 -213q39 0 95 13v-136q-91 -25 -158 -25q-152 0 -235 86.5t-83 238.5v638h-136z" />
<glyph unicode="u" horiz-adv-x="1271" d="M185 306v780h197v-716q0 -106 25 -155q35 -70 129 -70q180 0 340 237v704h197v-1086h-197v204q-157 -229 -381 -229q-146 0 -230 93q-80 90 -80 238z" />
<glyph unicode="v" horiz-adv-x="1060" d="M18 1086h197l316 -845l333 845h184l-429 -1086h-197z" />
<glyph unicode="w" horiz-adv-x="1578" d="M12 1086h193l238 -841l257 841h197l225 -841l273 841h169l-354 -1086h-198l-230 841l-260 -841h-199z" />
<glyph unicode="x" horiz-adv-x="1256" d="M88 0l413 561l-401 525h234l317 -418l287 418h192l-376 -551l409 -535h-234l-327 430l-316 -430h-198z" />
<glyph unicode="y" horiz-adv-x="1070" d="M16 1086h213l311 -818l332 818h186l-593 -1481h-205l176 395z" />
<glyph unicode="z" horiz-adv-x="1174" d="M123 0v148l672 790h-641v148h884v-148l-672 -790h685v-148h-928z" />
<glyph unicode="{" horiz-adv-x="666" d="M25 568v148h49q153 0 153 161q0 67 -16 140l-19 87q-19 87 -19 168q0 145 110 227q95 71 248 80v-148h-28q-61 0 -107 -31q-51 -34 -51 -93q0 -17 13 -95l17 -102q11 -66 11 -157q0 -187 -147 -311q147 -125 147 -313q0 -90 -11 -156l-17 -102q-13 -78 -13 -96 q0 -58 52 -92q46 -31 106 -31h28v-148q-153 9 -248 80q-110 83 -110 228q0 80 19 167l19 87q15 69 15 142q0 160 -152 160h-49z" />
<glyph unicode="|" horiz-adv-x="765" d="M333 -296v1875h99v-1875h-99z" />
<glyph unicode="}" horiz-adv-x="666" d="M136 -148h28q60 0 106 31q52 34 52 92q0 18 -13 96l-17 102q-12 72 -12 158q0 185 147 311q-147 124 -147 312q0 84 12 156l17 102q13 78 13 97q0 57 -52 92q-46 30 -106 30h-28v148q154 -9 249 -80q109 -82 109 -228q0 -80 -19 -167l-19 -87q-16 -73 -16 -142 q0 -159 152 -159h50v-148h-50q-152 0 -152 -162q0 -67 16 -140l19 -87q19 -87 19 -168q0 -145 -110 -227q-95 -71 -248 -80v148z" />
<glyph unicode="~" d="M105 444q0 135 69 227q76 102 207 102q79 0 215 -71l107 -56l128 -69q41 -22 91 -22q61 0 94 61q27 50 27 117v7h148q-21 -333 -266 -333q-91 0 -245 80l-231 120q-35 18 -71 18q-63 0 -97 -62q-28 -51 -28 -119h-148z" />
<glyph unicode="&#xa1;" horiz-adv-x="648" d="M225 -99l25 790h148l24 -790v-296h-197v296zM225 888v198h197v-198h-197z" />
<glyph unicode="&#xa2;" d="M205 738q0 230 114 375q120 152 344 182v185h99v-185q133 -6 284 -46v-166q-177 60 -284 70v-840q136 0 284 68v-150q-149 -58 -284 -58v-173h-99v173q-214 21 -340 188q-118 156 -118 377zM421 732q0 -330 242 -408v820q-242 -23 -242 -412z" />
<glyph unicode="&#xa3;" d="M247 0v173q210 67 210 316v227h-179v148h179v215q0 204 93 316q101 122 300 122q104 0 227 -30v-167q-124 49 -239 49q-184 0 -184 -230v-275h216v-148h-216v-127q0 -149 -31 -232q-37 -97 -142 -184h611v-173h-845z" />
<glyph unicode="&#xa4;" horiz-adv-x="1296" d="M98 278l195 195q-90 119 -90 267t90 267l-195 196l87 87l195 -195q125 89 267 89t267 -89l195 195l88 -87l-195 -196q89 -119 89 -267t-89 -267l195 -195l-88 -87l-195 195q-125 -90 -267 -90t-267 90l-195 -195zM351 740q0 -126 85 -211t211 -85t211 85t85 211t-85 211 t-211 85t-211 -85t-85 -211z" />
<glyph unicode="&#xa5;" d="M80 1480h233l360 -575l388 575h179l-500 -740h296v-148h-296v-99h296v-148h-296v-345h-197v345h-296v148h296v99h-296v148h296z" />
<glyph unicode="&#xa6;" horiz-adv-x="761" d="M333 -296v740h99v-740h-99zM333 839v740h99v-740h-99z" />
<glyph unicode="&#xa7;" d="M221 -80q242 -105 411 -105q106 0 186 37q104 49 104 143q0 80 -80 135q-32 22 -150 72l-177 75q-289 122 -289 336q0 151 146 299q-141 94 -141 241q0 181 150 279q129 85 320 85q150 0 345 -47v-160q-202 59 -348 59q-108 0 -187 -39q-101 -49 -101 -146 q0 -107 175 -178l136 -55q176 -71 248 -128q118 -95 118 -238q0 -142 -149 -308q164 -95 164 -268q0 -178 -165 -270q-132 -73 -326 -73q-156 0 -390 74v180zM398 661q0 -133 229 -230l213 -90q74 99 74 194q0 83 -73 140q-43 34 -147 78l-222 93q-74 -90 -74 -185z" />
<glyph unicode="&#xa8;" horiz-adv-x="1258" d="M345 1283v173h173v-173h-173zM740 1283v173h173v-173h-173z" />
<glyph unicode="&#xa9;" horiz-adv-x="1752" d="M99 740q0 324 226.5 550.5t550.5 226.5t550.5 -226.5t226.5 -550.5t-226.5 -550.5t-550.5 -226.5q-323 0 -550 227t-227 550zM210 740q0 -230 157 -427q191 -239 509 -239t509 239q157 197 157 427q0 232 -157 427q-192 239 -509 239t-509 -239q-157 -195 -157 -427z M475 735q0 201 116.5 322t316.5 121q91 0 226 -26l26 -5v-123q-136 56 -244 56q-140 0 -220 -103q-73 -94 -73 -238q0 -150 80 -239q83 -93 231 -93q113 0 226 62v-124q-141 -49 -255 -49q-192 0 -311 123.5t-119 315.5z" />
<glyph unicode="&#xaa;" horiz-adv-x="864" d="M123 1093q0 122 112 180q86 45 221 45h47v69q0 108 -119 108q-98 0 -204 -58v110q119 47 233 47q234 0 234 -204v-294q0 -89 56 -89q9 0 23 3l7 -83q-49 -18 -94 -18q-99 0 -127 92q-98 -92 -198 -92q-83 0 -137 51t-54 133zM267 1112q0 -40 27.5 -67t67.5 -27 q68 0 141 63v151h-37q-199 0 -199 -120z" />
<glyph unicode="&#xab;" horiz-adv-x="1073" d="M111 543l395 444l98 -74l-296 -370l296 -370l-98 -74zM506 543l395 444l98 -74l-296 -370l296 -370l-98 -74z" />
<glyph unicode="&#xac;" horiz-adv-x="1628" d="M222 691v99h1184v-494h-98v395h-1086z" />
<glyph unicode="&#xad;" horiz-adv-x="666" d="M111 543v148h444v-148h-444z" />
<glyph unicode="&#xae;" d="M204 1073q0 186 129 315t315 129t315 -129t129 -315q0 -185 -129.5 -314.5t-314.5 -129.5t-314.5 129.5t-129.5 314.5zM303 1073q0 -142 101.5 -243.5t243.5 -101.5t244 101.5t102 243.5q0 143 -101.5 244.5t-244.5 101.5q-142 0 -243.5 -101.5t-101.5 -244.5zM469 802 v530h154q204 0 204 -138q0 -97 -109 -155l124 -237h-113l-113 216h-48v-216h-99zM568 1092h43q105 0 105 93q0 74 -101 74h-47v-167z" />
<glyph unicode="&#xaf;" horiz-adv-x="1024" d="M86 1456v148h851v-148h-851z" />
<glyph unicode="&#xb0;" horiz-adv-x="567" d="M64 1296q0 94 64 157.5t158 63.5q93 0 157.5 -64t64.5 -157q0 -94 -64 -158.5t-158 -64.5t-158 64.5t-64 158.5zM163 1295q0 -49 37 -86t86 -37q50 0 86.5 36.5t36.5 86.5t-36.5 87t-86.5 37t-86.5 -37t-36.5 -87z" />
<glyph unicode="&#xb1;" horiz-adv-x="1628" d="M222 0v99h1184v-99h-1184zM222 691v99h543v394h99v-394h542v-99h-542v-395h-99v395h-543z" />
<glyph unicode="&#xb2;" horiz-adv-x="864" d="M149 592v122q67 118 182 219l70 62q156 138 156 257q0 149 -164 149q-95 0 -222 -69v117q127 54 252 54q122 0 202 -61q89 -67 89 -185q0 -89 -56 -165q-37 -49 -128 -125l-53 -44q-133 -111 -156 -209h389v-122h-561z" />
<glyph unicode="&#xb3;" horiz-adv-x="864" d="M158 599v122q130 -51 208 -51q79 0 130 41q55 45 55 122q0 182 -260 182h-51v93h44q244 0 244 166q0 129 -157 129q-92 0 -201 -50v112q110 38 226 38q282 0 282 -209q0 -157 -191 -223q220 -50 220 -238q0 -133 -99 -202q-87 -61 -225 -61q-106 0 -225 29z" />
<glyph unicode="&#xb4;" horiz-adv-x="1258" d="M395 1283l241 321h228l-321 -321h-148z" />
<glyph unicode="&#xb5;" horiz-adv-x="1283" d="M197 -395v1481h197v-716q0 -210 182 -210q165 0 312 222v704h197v-1086h-197v204q-140 -229 -316 -229q-102 0 -178 50v-420h-197z" />
<glyph unicode="&#xb6;" d="M216 1154q0 190 119 266q96 60 300 60h395v-1776h-123v1653h-148v-1653h-124v1036q-191 14 -302 117q-117 110 -117 297z" />
<glyph unicode="&#xb7;" horiz-adv-x="913" d="M333 469v246h246v-246h-246z" />
<glyph unicode="&#xb8;" horiz-adv-x="1258" d="M510 -330q46 -15 105 -15q103 0 103 74q0 96 -187 96l95 175h97l-60 -109q71 0 130 -43q64 -46 64 -115q0 -75 -65 -122q-58 -43 -136 -43q-72 0 -146 21v81z" />
<glyph unicode="&#xb9;" horiz-adv-x="864" d="M259 1384v82l296 24v-898h-148v792h-148z" />
<glyph unicode="&#xba;" horiz-adv-x="864" d="M123 1252q0 156 85 247q87 95 241 95t241 -95q84 -92 84 -247q0 -156 -84 -248q-87 -95 -241 -95q-155 0 -242 95q-84 92 -84 248zM280 1252q0 -243 169 -243q168 0 168 243q0 242 -168 242q-169 0 -169 -242z" />
<glyph unicode="&#xbb;" horiz-adv-x="1073" d="M74 173l296 370l-296 370l99 74l394 -444l-394 -444zM469 173l296 370l-296 370l98 74l395 -444l-395 -444z" />
<glyph unicode="&#xbc;" horiz-adv-x="1641" d="M99 1384v82l296 24v-898h-148v792h-148zM149 -37l1088 1554h135l-1087 -1554h-136zM876 242v114l403 532h140v-529h123v-117h-123v-242h-136v242h-407zM1005 359h278v364z" />
<glyph unicode="&#xbd;" horiz-adv-x="1641" d="M99 -37l1088 1554h135l-1087 -1554h-136zM99 1384v82l296 24v-898h-148v792h-148zM978 0v122q67 118 182 219l70 62q156 138 156 257q0 149 -164 149q-95 0 -222 -69v117q127 54 252 54q122 0 202 -61q89 -67 89 -185q0 -89 -56 -165q-37 -49 -128 -125l-53 -44 q-133 -111 -156 -209h389v-122h-561z" />
<glyph unicode="&#xbe;" horiz-adv-x="1641" d="M99 599v122q130 -51 208 -51q79 0 130 41q55 45 55 122q0 182 -260 182h-51v93h44q244 0 244 166q0 129 -157 129q-92 0 -201 -50v112q110 38 226 38q282 0 282 -209q0 -157 -191 -223q220 -50 220 -238q0 -133 -99 -202q-87 -61 -225 -61q-106 0 -225 29zM248 -37 l1088 1554h135l-1087 -1554h-136zM876 242v114l403 532h140v-529h123v-117h-123v-242h-136v242h-407zM1005 359h278v364z" />
<glyph unicode="&#xbf;" horiz-adv-x="864" d="M37 -94q0 98 46 172q31 49 121 136l61 59q87 85 115 135q36 67 36 172v111h198v-55q0 -114 -35 -195q-31 -73 -112 -164l-64 -72q-156 -175 -156 -295q0 -99 82 -151q69 -43 174 -43q150 0 324 75v-167q-186 -56 -348 -56q-182 0 -301 76q-141 90 -141 262zM416 888v198 h198v-198h-198z" />
<glyph unicode="&#xc0;" horiz-adv-x="1413" d="M17 0l587 1480h208l578 -1480h-227l-161 410h-627l-163 -410h-195zM387 1925h228l241 -321h-148zM436 566h505l-252 638z" />
<glyph unicode="&#xc1;" horiz-adv-x="1413" d="M17 0l587 1480h208l578 -1480h-227l-161 410h-627l-163 -410h-195zM436 566h505l-252 638zM560 1604l241 321h228l-321 -321h-148z" />
<glyph unicode="&#xc2;" horiz-adv-x="1413" d="M17 0l587 1480h208l578 -1480h-227l-161 410h-627l-163 -410h-195zM358 1604l241 321h218l241 -321h-148l-203 202l-201 -202h-148zM436 566h505l-252 638z" />
<glyph unicode="&#xc3;" horiz-adv-x="1413" d="M17 0l587 1480h208l578 -1480h-227l-161 410h-627l-163 -410h-195zM370 1604q11 234 185 234q73 0 135 -38l60 -37q57 -35 85 -35q69 0 78 110h123q-11 -234 -185 -234q-72 0 -135 39l-60 37q-55 34 -85 34q-69 0 -78 -110h-123zM436 566h505l-252 638z" />
<glyph unicode="&#xc4;" horiz-adv-x="1413" d="M17 0l587 1480h208l578 -1480h-227l-161 410h-627l-163 -410h-195zM420 1604v173h173v-173h-173zM436 566h505l-252 638zM815 1604v173h173v-173h-173z" />
<glyph unicode="&#xc5;" horiz-adv-x="1413" d="M17 0l587 1480h208l578 -1480h-227l-161 410h-627l-163 -410h-195zM436 566h505l-252 638zM481 1831q0 95 66 161t161 66t161 -66t66 -161q0 -96 -65.5 -161.5t-161.5 -65.5t-161.5 65.5t-65.5 161.5zM567 1831q0 -59 41 -100t100 -41t100 41t41 100t-41 100t-100 41 t-100 -41t-41 -100z" />
<glyph unicode="&#xc6;" horiz-adv-x="1857" d="M18 0l861 1480h883v-157h-618v-475h518v-155h-518v-536h664v-157h-874v414h-483l-241 -414h-192zM540 569h394v671z" />
<glyph unicode="&#xc7;" horiz-adv-x="1417" d="M104 739q0 363 183 566q191 212 549 212q198 0 465 -65v-197q-304 105 -469 105q-261 0 -392 -188q-113 -162 -113 -435q0 -268 127 -431q140 -179 400 -179q209 0 449 129v-180q-219 -113 -478 -113q-356 0 -543 213q-178 202 -178 563zM654 -330q46 -15 105 -15 q103 0 103 74q0 96 -187 96l95 175h97l-60 -109q71 0 130 -43q64 -46 64 -115q0 -75 -65 -122q-58 -43 -136 -43q-72 0 -146 21v81z" />
<glyph unicode="&#xc8;" horiz-adv-x="1110" d="M191 0v1480h827v-157h-617v-475h517v-155h-517v-536h660v-157h-870zM296 1925h228l241 -321h-148z" />
<glyph unicode="&#xc9;" horiz-adv-x="1110" d="M191 0v1480h827v-157h-617v-475h517v-155h-517v-536h660v-157h-870zM456 1604l241 321h228l-321 -321h-148z" />
<glyph unicode="&#xca;" horiz-adv-x="1110" d="M191 0v1480h827v-157h-617v-475h517v-155h-517v-536h660v-157h-870zM265 1604l241 321h218l241 -321h-148l-203 202l-201 -202h-148z" />
<glyph unicode="&#xcb;" horiz-adv-x="1110" d="M191 0v1480h827v-157h-617v-475h517v-155h-517v-536h660v-157h-870zM342 1604v173h173v-173h-173zM737 1604v173h173v-173h-173z" />
<glyph unicode="&#xcc;" horiz-adv-x="590" d="M-26 1925h228l241 -321h-148zM190 0v1480h210v-1480h-210z" />
<glyph unicode="&#xcd;" horiz-adv-x="590" d="M147 1604l241 321h228l-321 -321h-148zM190 0v1480h210v-1480h-210z" />
<glyph unicode="&#xce;" horiz-adv-x="590" d="M-55 1604l241 321h218l241 -321h-148l-203 202l-201 -202h-148zM190 0v1480h210v-1480h-210z" />
<glyph unicode="&#xcf;" horiz-adv-x="590" d="M11 1604v173h173v-173h-173zM190 0v1480h210v-1480h-210zM406 1604v173h173v-173h-173z" />
<glyph unicode="&#xd0;" horiz-adv-x="1480" d="M104 740q0 361 183 565q190 212 547 212q223 0 467 -67v-194q-306 104 -469 104q-260 0 -391 -187q-114 -162 -114 -434q0 -278 129 -440q141 -179 411 -179q105 0 227 37v482h209v-599q-269 -77 -469 -77q-362 0 -550 210q-180 200 -180 567zM469 1900h123 q32 -148 210 -148t210 148h123q-15 -135 -106 -215.5t-227 -80.5t-226.5 80.5t-106.5 215.5z" />
<glyph unicode="&#xd1;" horiz-adv-x="1513" d="M191 0v1480h206l745 -1143v1143h180v-1480h-205l-746 1143v-1143h-180zM448 1604q11 234 185 234q73 0 135 -38l60 -37q57 -35 85 -35q69 0 78 110h123q-11 -234 -185 -234q-72 0 -135 39l-60 37q-55 34 -85 34q-69 0 -78 -110h-123z" />
<glyph unicode="&#xd2;" horiz-adv-x="1591" d="M104 740q0 338 174 550q187 227 518 227t518 -227q174 -212 174 -550t-174 -550q-187 -227 -518 -227t-518 227q-174 212 -174 550zM327 742q0 -261 101 -425q123 -197 368 -197t368 197q101 164 101 425q0 260 -102 423q-122 195 -367 195t-367 -195 q-102 -163 -102 -423zM475 1925h228l241 -321h-148z" />
<glyph unicode="&#xd3;" horiz-adv-x="1591" d="M104 740q0 338 174 550q187 227 518 227t518 -227q174 -212 174 -550t-174 -550q-187 -227 -518 -227t-518 227q-174 212 -174 550zM327 742q0 -261 101 -425q123 -197 368 -197t368 197q101 164 101 425q0 260 -102 423q-122 195 -367 195t-367 -195 q-102 -163 -102 -423zM648 1604l241 321h228l-321 -321h-148z" />
<glyph unicode="&#xd4;" horiz-adv-x="1591" d="M104 740q0 338 174 550q187 227 518 227t518 -227q174 -212 174 -550t-174 -550q-187 -227 -518 -227t-518 227q-174 212 -174 550zM327 742q0 -261 101 -425q123 -197 368 -197t368 197q101 164 101 425q0 260 -102 423q-122 195 -367 195t-367 -195 q-102 -163 -102 -423zM446 1604l241 321h218l241 -321h-148l-203 202l-201 -202h-148z" />
<glyph unicode="&#xd5;" horiz-adv-x="1591" d="M104 740q0 338 174 550q187 227 518 227t518 -227q174 -212 174 -550t-174 -550q-187 -227 -518 -227t-518 227q-174 212 -174 550zM327 742q0 -261 101 -425q123 -197 368 -197t368 197q101 164 101 425q0 260 -102 423q-122 195 -367 195t-367 -195 q-102 -163 -102 -423zM463 1604q11 234 185 234q73 0 135 -38l60 -37q57 -35 85 -35q69 0 78 110h123q-11 -234 -185 -234q-72 0 -135 39l-60 37q-55 34 -85 34q-69 0 -78 -110h-123z" />
<glyph unicode="&#xd6;" horiz-adv-x="1591" d="M104 740q0 338 174 550q187 227 518 227t518 -227q174 -212 174 -550t-174 -550q-187 -227 -518 -227t-518 227q-174 212 -174 550zM327 742q0 -261 101 -425q123 -197 368 -197t368 197q101 164 101 425q0 260 -102 423q-122 195 -367 195t-367 -195 q-102 -163 -102 -423zM512 1604v173h173v-173h-173zM907 1604v173h173v-173h-173z" />
<glyph unicode="&#xd7;" horiz-adv-x="1628" d="M222 70l522 522l-522 523l70 69l522 -522l523 522l69 -69l-522 -523l522 -522l-69 -70l-523 523l-522 -523z" />
<glyph unicode="&#xd8;" horiz-adv-x="1591" d="M104 741q0 338 174 549q187 227 517 227q237 0 413 -126l97 126h172l-169 -220q180 -216 180 -559q0 -335 -174 -547q-187 -228 -515 -228q-245 0 -415 126l-96 -126h-173l169 221q-180 217 -180 557zM327 742q0 -233 83 -393l687 898q-119 113 -302 113 q-244 0 -366 -195q-102 -163 -102 -423zM495 234q119 -114 303 -114q243 0 366 196q101 164 101 423q0 235 -83 393z" />
<glyph unicode="&#xd9;" horiz-adv-x="1419" d="M179 548v932h210v-934q0 -205 69 -306q82 -120 276 -120q191 0 265 119q58 93 58 300v941h184v-938q0 -172 -28 -265q-38 -129 -147 -216q-123 -98 -341 -98q-288 0 -421 150q-125 142 -125 435zM402 1925h228l241 -321h-148z" />
<glyph unicode="&#xda;" horiz-adv-x="1419" d="M179 548v932h210v-934q0 -205 69 -306q82 -120 276 -120q191 0 265 119q58 93 58 300v941h184v-938q0 -172 -28 -265q-38 -129 -147 -216q-123 -98 -341 -98q-288 0 -421 150q-125 142 -125 435zM575 1604l241 321h228l-321 -321h-148z" />
<glyph unicode="&#xdb;" horiz-adv-x="1419" d="M179 548v932h210v-934q0 -205 69 -306q82 -120 276 -120q191 0 265 119q58 93 58 300v941h184v-938q0 -172 -28 -265q-38 -129 -147 -216q-123 -98 -341 -98q-288 0 -421 150q-125 142 -125 435zM373 1604l241 321h218l241 -321h-148l-203 202l-201 -202h-148z" />
<glyph unicode="&#xdc;" horiz-adv-x="1419" d="M179 548v932h210v-934q0 -205 69 -306q82 -120 276 -120q191 0 265 119q58 93 58 300v941h184v-938q0 -172 -28 -265q-38 -129 -147 -216q-123 -98 -341 -98q-288 0 -421 150q-125 142 -125 435zM426 1604v173h173v-173h-173zM821 1604v173h173v-173h-173z" />
<glyph unicode="&#xdd;" horiz-adv-x="590" d="M190 0v1480h210v-1480h-210zM196 1604v197h197v-197h-197z" />
<glyph unicode="&#xde;" horiz-adv-x="1103" d="M100 28v208q250 -116 412 -116q115 0 191 59q83 65 83 177q0 100 -72 173q-44 44 -160 111l-102 59q-163 94 -235 168q-109 113 -109 257q0 180 132 290q124 103 308 103q171 0 361 -57v-192q-234 92 -349 92q-100 0 -171 -51q-80 -57 -80 -153q0 -87 83 -162 q46 -41 159 -105l106 -60q167 -94 239 -173q105 -113 105 -266q0 -209 -160 -324q-142 -103 -359 -103q-150 0 -382 65zM383 -330q46 -15 105 -15q103 0 103 74q0 96 -187 96l95 175h97l-60 -109q71 0 130 -43q64 -46 64 -115q0 -75 -65 -122q-58 -43 -136 -43 q-72 0 -146 21v81z" />
<glyph unicode="&#xdf;" horiz-adv-x="1225" d="M197 0v1151q0 228 69 329q84 124 298 124q145 0 244 -58q120 -71 120 -206q0 -122 -131 -295q-77 -101 -77 -141q0 -62 110 -155l161 -136q173 -146 173 -314q0 -154 -98 -241q-94 -83 -250 -83q-141 0 -282 58v169q183 -79 282 -79q73 0 117.5 42.5t44.5 115.5 q0 58 -35 105q-20 28 -80 79l-191 164q-125 107 -125 219q0 84 100 238q83 127 83 219q0 151 -170 151q-166 0 -166 -222v-1234h-197z" />
<glyph unicode="&#xe0;" horiz-adv-x="1131" d="M103 273q0 207 198 300q147 69 381 69h46v131q0 189 -197 189q-153 0 -334 -96v163q199 81 375 81q353 0 353 -337v-492q0 -169 104 -169q13 0 38 4l14 -109q-67 -32 -148 -32q-138 0 -176 163q-177 -163 -341 -163q-133 0 -223 83t-90 215zM254 1604h228l241 -321h-148z M300 305q0 -72 50 -120.5t122 -48.5q123 0 256 109v281l-63 2q-156 5 -264 -61q-101 -61 -101 -162z" />
<glyph unicode="&#xe1;" horiz-adv-x="1131" d="M103 273q0 207 198 300q147 69 381 69h46v131q0 189 -197 189q-153 0 -334 -96v163q199 81 375 81q353 0 353 -337v-492q0 -169 104 -169q13 0 38 4l14 -109q-67 -32 -148 -32q-138 0 -176 163q-177 -163 -341 -163q-133 0 -223 83t-90 215zM300 305q0 -72 50 -120.5 t122 -48.5q123 0 256 109v281l-63 2q-156 5 -264 -61q-101 -61 -101 -162zM426 1283l241 321h228l-321 -321h-148z" />
<glyph unicode="&#xe2;" horiz-adv-x="1131" d="M103 273q0 207 198 300q147 69 381 69h46v131q0 189 -197 189q-153 0 -334 -96v163q199 81 375 81q353 0 353 -337v-492q0 -169 104 -169q13 0 38 4l14 -109q-67 -32 -148 -32q-138 0 -176 163q-177 -163 -341 -163q-133 0 -223 83t-90 215zM220 1283l241 321h218 l241 -321h-148l-203 202l-201 -202h-148zM300 305q0 -72 50 -120.5t122 -48.5q123 0 256 109v281l-63 2q-156 5 -264 -61q-101 -61 -101 -162z" />
<glyph unicode="&#xe3;" horiz-adv-x="1131" d="M103 273q0 207 198 300q147 69 381 69h46v131q0 189 -197 189q-153 0 -334 -96v163q199 81 375 81q353 0 353 -337v-492q0 -169 104 -169q13 0 38 4l14 -109q-67 -32 -148 -32q-138 0 -176 163q-177 -163 -341 -163q-133 0 -223 83t-90 215zM234 1283q11 234 185 234 q73 0 135 -38l60 -37q57 -35 85 -35q69 0 78 110h123q-11 -234 -185 -234q-72 0 -135 39l-60 37q-55 34 -85 34q-69 0 -78 -110h-123zM300 305q0 -72 50 -120.5t122 -48.5q123 0 256 109v281l-63 2q-156 5 -264 -61q-101 -61 -101 -162z" />
<glyph unicode="&#xe4;" horiz-adv-x="1131" d="M103 273q0 207 198 300q147 69 381 69h46v131q0 189 -197 189q-153 0 -334 -96v163q199 81 375 81q353 0 353 -337v-492q0 -169 104 -169q13 0 38 4l14 -109q-67 -32 -148 -32q-138 0 -176 163q-177 -163 -341 -163q-133 0 -223 83t-90 215zM284 1283v173h173v-173h-173z M300 305q0 -72 50 -120.5t122 -48.5q123 0 256 109v281l-63 2q-156 5 -264 -61q-101 -61 -101 -162zM679 1283v173h173v-173h-173z" />
<glyph unicode="&#xe5;" horiz-adv-x="1131" d="M103 273q0 207 198 300q147 69 381 69h46v131q0 189 -197 189q-153 0 -334 -96v163q199 81 375 81q353 0 353 -337v-492q0 -169 104 -169q13 0 38 4l14 -109q-67 -32 -148 -32q-138 0 -176 163q-177 -163 -341 -163q-133 0 -223 83t-90 215zM300 305q0 -72 50 -120.5 t122 -48.5q123 0 256 109v281l-63 2q-156 5 -264 -61q-101 -61 -101 -162zM341 1510q0 95 66 161t161 66t161 -66t66 -161q0 -96 -65.5 -161.5t-161.5 -65.5t-161.5 65.5t-65.5 161.5zM427 1510q0 -59 41 -100t100 -41t100 41t41 100t-41 100t-100 41t-100 -41t-41 -100z " />
<glyph unicode="&#xe6;" horiz-adv-x="1743" d="M103 273q0 207 198 300q147 69 381 69h46v131q0 189 -197 189q-153 0 -334 -96v163q199 81 376 81q192 0 304 -121q123 121 303 121q418 0 418 -598h-672q28 -389 365 -389q140 0 307 71v-157q-193 -62 -359 -62q-285 0 -430 218q-190 -218 -393 -218q-133 0 -223 83 t-90 215zM300 305q0 -72 50 -120.5t122 -48.5q123 0 256 109v281l-63 2q-156 5 -264 -61q-101 -61 -101 -162zM932 648h456q0 315 -214 315q-217 0 -242 -315z" />
<glyph unicode="&#xe7;" horiz-adv-x="1049" d="M111 549q0 262 141.5 411.5t402.5 149.5q127 0 284 -35v-165q-167 49 -272 49q-166 0 -255 -130q-79 -113 -79 -286q0 -170 83 -283q93 -126 257 -126q135 0 278 69v-170q-191 -58 -330 -58q-232 0 -376 174q-134 163 -134 400zM471 -330q46 -15 105 -15q103 0 103 74 q0 96 -187 96l95 175h97l-60 -109q71 0 130 -43q64 -46 64 -115q0 -75 -65 -122q-58 -43 -136 -43q-72 0 -146 21v81z" />
<glyph unicode="&#xe8;" horiz-adv-x="1141" d="M111 548q0 231 120 389q132 174 355 174q197 0 305 -140q111 -147 107 -399l-1 -60h-685q43 -387 379 -387q123 0 302 66v-156q-198 -60 -339 -60q-247 0 -397 164q-146 159 -146 409zM248 1604h228l241 -321h-148zM321 660h479q0 303 -226 303q-227 0 -253 -303z" />
<glyph unicode="&#xe9;" horiz-adv-x="1141" d="M111 548q0 231 120 389q132 174 355 174q197 0 305 -140q111 -147 107 -399l-1 -60h-685q43 -387 379 -387q123 0 302 66v-156q-198 -60 -339 -60q-247 0 -397 164q-146 159 -146 409zM321 660h479q0 303 -226 303q-227 0 -253 -303zM421 1283l241 321h228l-321 -321 h-148z" />
<glyph unicode="&#xea;" horiz-adv-x="1141" d="M111 548q0 231 120 389q132 174 355 174q197 0 305 -140q111 -147 107 -399l-1 -60h-685q43 -387 379 -387q123 0 302 66v-156q-198 -60 -339 -60q-247 0 -397 164q-146 159 -146 409zM235 1283l241 321h218l241 -321h-148l-203 202l-201 -202h-148zM321 660h479 q0 303 -226 303q-227 0 -253 -303z" />
<glyph unicode="&#xeb;" horiz-adv-x="1141" d="M111 548q0 231 120 389q132 174 355 174q197 0 305 -140q111 -147 107 -399l-1 -60h-685q43 -387 379 -387q123 0 302 66v-156q-198 -60 -339 -60q-247 0 -397 164q-146 159 -146 409zM308 1283v173h173v-173h-173zM321 660h479q0 303 -226 303q-227 0 -253 -303z M703 1283v173h173v-173h-173z" />
<glyph unicode="&#xec;" horiz-adv-x="592" d="M-25 1604h228l241 -321h-148zM197 0v1086h197v-1086h-197z" />
<glyph unicode="&#xed;" horiz-adv-x="592" d="M148 1283l241 321h228l-321 -321h-148zM197 0v1086h197v-1086h-197z" />
<glyph unicode="&#xee;" horiz-adv-x="592" d="M-54 1283l241 321h218l241 -321h-148l-203 202l-201 -202h-148zM197 0v1086h197v-1086h-197z" />
<glyph unicode="&#xef;" horiz-adv-x="592" d="M12 1283v173h173v-173h-173zM197 0v1086h197v-1086h-197zM407 1283v173h173v-173h-173z" />
<glyph unicode="&#xf0;" horiz-adv-x="1277" d="M111 550q0 231 117 387q129 173 353 173q182 0 313 -148v124h198v-790q0 -211 -13 -303q-26 -182 -113 -275q-129 -137 -403 -137q-188 0 -362 58l23 171q171 -81 338 -81q332 0 332 353v171q-108 -228 -356 -228q-213 0 -327 161q-100 141 -100 364zM268 1579h123 q32 -148 210 -148t210 148h123q-15 -135 -106 -215.5t-227 -80.5t-226.5 80.5t-106.5 215.5zM321 551q0 -354 251 -354q171 0 322 179v451q-130 135 -283 135q-154 0 -230 -135q-60 -108 -60 -276z" />
<glyph unicode="&#xf1;" horiz-adv-x="1271" d="M197 0v1086h197v-204q156 228 382 228q146 0 229 -93q80 -89 80 -237v-780h-197v716q0 105 -25 154q-35 70 -128 70q-181 0 -341 -237v-703h-197zM333 1283q11 234 185 234q73 0 135 -38l60 -37q57 -35 85 -35q69 0 78 110h123q-11 -234 -185 -234q-72 0 -135 39l-60 37 q-55 34 -85 34q-69 0 -78 -110h-123z" />
<glyph unicode="&#xf2;" horiz-adv-x="1258" d="M111 543q0 253 131 405q138 162 387 162t387 -162q131 -152 131 -405t-131 -406q-138 -162 -387 -162t-387 162q-131 153 -131 406zM308 1604h228l241 -321h-148zM321 543q0 -177 64 -286q80 -134 244 -134t244 134q65 109 65 286t-65 285q-80 134 -244 134t-244 -134 q-64 -108 -64 -285z" />
<glyph unicode="&#xf3;" horiz-adv-x="1258" d="M111 543q0 253 131 405q138 162 387 162t387 -162q131 -152 131 -405t-131 -406q-138 -162 -387 -162t-387 162q-131 153 -131 406zM321 543q0 -177 64 -286q80 -134 244 -134t244 134q65 109 65 286t-65 285q-80 134 -244 134t-244 -134q-64 -108 -64 -285zM481 1283 l241 321h228l-321 -321h-148z" />
<glyph unicode="&#xf4;" horiz-adv-x="1258" d="M111 543q0 253 131 405q138 162 387 162t387 -162q131 -152 131 -405t-131 -406q-138 -162 -387 -162t-387 162q-131 153 -131 406zM279 1283l241 321h218l241 -321h-148l-203 202l-201 -202h-148zM321 543q0 -177 64 -286q80 -134 244 -134t244 134q65 109 65 286 t-65 285q-80 134 -244 134t-244 -134q-64 -108 -64 -285z" />
<glyph unicode="&#xf5;" horiz-adv-x="1258" d="M111 543q0 253 131 405q138 162 387 162t387 -162q131 -152 131 -405t-131 -406q-138 -162 -387 -162t-387 162q-131 153 -131 406zM296 1283q11 234 185 234q73 0 135 -38l60 -37q57 -35 85 -35q69 0 78 110h123q-11 -234 -185 -234q-72 0 -135 39l-60 37q-55 34 -85 34 q-69 0 -78 -110h-123zM321 543q0 -177 64 -286q80 -134 244 -134t244 134q65 109 65 286t-65 285q-80 134 -244 134t-244 -134q-64 -108 -64 -285z" />
<glyph unicode="&#xf6;" horiz-adv-x="1258" d="M111 543q0 253 131 405q138 162 387 162t387 -162q131 -152 131 -405t-131 -406q-138 -162 -387 -162t-387 162q-131 153 -131 406zM321 543q0 -177 64 -286q80 -134 244 -134t244 134q65 109 65 286t-65 285q-80 134 -244 134t-244 -134q-64 -108 -64 -285zM345 1283 v173h173v-173h-173zM740 1283v173h173v-173h-173z" />
<glyph unicode="&#xf7;" horiz-adv-x="1628" d="M222 543v99h1184v-99h-1184zM715 99v197h198v-197h-198zM715 888v198h198v-198h-198z" />
<glyph unicode="&#xf8;" horiz-adv-x="1258" d="M111 -25l127 169q-127 146 -127 396q0 255 130 407q138 163 388 163q178 0 304 -85l68 85h146l-129 -165l2 -4q127 -159 127 -397q0 -253 -130 -406q-139 -163 -387 -163q-174 0 -304 85l-67 -85h-148zM321 547q0 -145 43 -249l463 590q-81 74 -196 74q-163 0 -244 -132 q-66 -108 -66 -283zM432 196q77 -73 195 -73q163 0 244 132q67 109 67 283q0 136 -43 249z" />
<glyph unicode="&#xf9;" horiz-adv-x="1271" d="M185 306v780h197v-716q0 -106 25 -155q35 -70 129 -70q180 0 340 237v704h197v-1086h-197v204q-157 -229 -381 -229q-146 0 -230 93q-80 90 -80 238zM308 1604h228l241 -321h-148z" />
<glyph unicode="&#xfa;" horiz-adv-x="1271" d="M185 306v780h197v-716q0 -106 25 -155q35 -70 129 -70q180 0 340 237v704h197v-1086h-197v204q-157 -229 -381 -229q-146 0 -230 93q-80 90 -80 238zM481 1283l241 321h228l-321 -321h-148z" />
<glyph unicode="&#xfb;" horiz-adv-x="1271" d="M185 306v780h197v-716q0 -106 25 -155q35 -70 129 -70q180 0 340 237v704h197v-1086h-197v204q-157 -229 -381 -229q-146 0 -230 93q-80 90 -80 238zM279 1283l241 321h218l241 -321h-148l-203 202l-201 -202h-148z" />
<glyph unicode="&#xfc;" horiz-adv-x="1271" d="M185 306v780h197v-716q0 -106 25 -155q35 -70 129 -70q180 0 340 237v704h197v-1086h-197v204q-157 -229 -381 -229q-146 0 -230 93q-80 90 -80 238zM345 1283v173h173v-173h-173zM740 1283v173h173v-173h-173z" />
<glyph unicode="&#xfd;" horiz-adv-x="592" d="M197 0v1086h197v-1086h-197z" />
<glyph unicode="&#xfe;" horiz-adv-x="1043" d="M157 38v181q193 -96 336 -96q78 0 134 41q63 45 63 120q0 100 -157 167l-115 49q-255 109 -255 305q0 154 115 235q100 70 261 70q97 0 225 -25l41 -8v-164q-165 49 -263 49q-76 0 -127 -30q-62 -37 -62 -108q0 -89 144 -150l95 -40q141 -59 205 -120q90 -85 90 -212 q0 -156 -127 -246q-113 -81 -275 -81q-135 0 -328 63zM372 -330q46 -15 105 -15q103 0 103 74q0 96 -187 96l95 175h97l-60 -109q71 0 130 -43q64 -46 64 -115q0 -75 -65 -122q-58 -43 -136 -43q-72 0 -146 21v81z" />
<glyph unicode="&#xff;" horiz-adv-x="1070" d="M16 1086h213l311 -818l332 818h186l-593 -1481h-205l176 395zM266 1283v173h173v-173h-173zM661 1283v173h173v-173h-173z" />
<glyph unicode="&#x152;" horiz-adv-x="2048" d="M104 740q0 337 173 549q187 228 516 228q181 0 336 -94v57h827v-157h-617v-475h517v-155l-516 -1l-1 -535h660v-157h-870v58q-156 -95 -347 -95q-322 0 -507 233q-171 214 -171 544zM327 740q0 -261 102 -424q122 -196 367 -196q191 0 271 135q62 106 62 314v342 q0 209 -63 315q-80 134 -273 134q-243 0 -365 -197q-101 -164 -101 -423z" />
<glyph unicode="&#x153;" horiz-adv-x="1901" d="M111 543q0 249 129 403q138 164 382 164q218 0 352 -200q122 200 365 200q417 0 417 -598h-673q29 -389 365 -389q140 0 308 71v-157q-193 -62 -350 -62q-281 0 -427 199q-130 -199 -359 -199q-243 0 -381 165q-128 155 -128 403zM321 543q0 -174 63 -284 q79 -136 240 -136q258 0 258 437q0 402 -258 402q-161 0 -240 -136q-63 -109 -63 -283zM1090 648h456q0 315 -214 315q-217 0 -242 -315z" />
<glyph unicode="&#x178;" horiz-adv-x="1276" d="M17 1480h240l384 -668l414 668h195l-529 -858v-622h-210v618zM350 1604v173h173v-173h-173zM745 1604v173h173v-173h-173z" />
<glyph unicode="&#x2c6;" horiz-adv-x="1258" d="M279 1283l241 321h218l241 -321h-148l-203 202l-201 -202h-148z" />
<glyph unicode="&#x2dc;" horiz-adv-x="1258" d="M296 1283q11 234 185 234q73 0 135 -38l60 -37q57 -35 85 -35q69 0 78 110h123q-11 -234 -185 -234q-72 0 -135 39l-60 37q-55 34 -85 34q-69 0 -78 -110h-123z" />
<glyph unicode="&#x2000;" horiz-adv-x="1029" />
<glyph unicode="&#x2001;" horiz-adv-x="2058" />
<glyph unicode="&#x2002;" horiz-adv-x="1029" />
<glyph unicode="&#x2003;" horiz-adv-x="2058" />
<glyph unicode="&#x2004;" horiz-adv-x="686" />
<glyph unicode="&#x2005;" horiz-adv-x="514" />
<glyph unicode="&#x2006;" horiz-adv-x="343" />
<glyph unicode="&#x2007;" horiz-adv-x="343" />
<glyph unicode="&#x2008;" horiz-adv-x="257" />
<glyph unicode="&#x2009;" horiz-adv-x="411" />
<glyph unicode="&#x200a;" horiz-adv-x="114" />
<glyph unicode="&#x2010;" horiz-adv-x="1185" d="M148 543v123h888v-123h-888z" />
<glyph unicode="&#x2011;" horiz-adv-x="1185" d="M148 543v123h888v-123h-888z" />
<glyph unicode="&#x2012;" horiz-adv-x="1185" d="M148 543v123h888v-123h-888z" />
<glyph unicode="&#x2013;" horiz-adv-x="1024" d="M105 543v123h814v-123h-814z" />
<glyph unicode="&#x2014;" horiz-adv-x="2048" d="M99 543v123h1851v-123h-1851z" />
<glyph unicode="&#x2018;" horiz-adv-x="648" d="M200 1012v214q0 327 247 353v-74q-96 -27 -96 -226v-21h96v-246h-247z" />
<glyph unicode="&#x2019;" horiz-adv-x="648" d="M200 1012v74q96 27 96 226v20h-96v247h247v-214q0 -329 -247 -353z" />
<glyph unicode="&#x201a;" horiz-adv-x="648" d="M200 0v247h247v-214q0 -303 -247 -329v74q96 27 96 202v20h-96z" />
<glyph unicode="&#x201c;" horiz-adv-x="765" d="M111 1061v166q0 303 197 352v-74q-70 -37 -70 -224v-23h70v-197h-197zM456 1061v166q0 303 198 352v-74q-71 -37 -71 -224v-23h71v-197h-198z" />
<glyph unicode="&#x201d;" horiz-adv-x="765" d="M111 1061v74q71 37 71 224v23h-71v197h197v-166q0 -303 -197 -352zM456 1061v74q71 37 71 224v23h-71v197h198v-166q0 -303 -198 -352z" />
<glyph unicode="&#x201e;" horiz-adv-x="765" d="M111 0v197h197v-166q0 -303 -197 -352v74q71 37 71 224v23h-71zM456 0v197h198v-166q0 -303 -198 -352v74q71 37 71 224v23h-71z" />
<glyph unicode="&#x2022;" d="M463 586q0 78 53.5 131.5t131.5 53.5t131.5 -53.5t53.5 -131.5t-53.5 -131.5t-131.5 -53.5t-131.5 53.5t-53.5 131.5z" />
<glyph unicode="&#x2026;" horiz-adv-x="2048" d="M243 0v197h197v-197h-197zM926 0v197h197v-197h-197zM1608 0v197h198v-197h-198z" />
<glyph unicode="&#x202f;" horiz-adv-x="411" />
<glyph unicode="&#x2039;" horiz-adv-x="679" d="M111 543l395 444l98 -74l-296 -370l296 -370l-98 -74z" />
<glyph unicode="&#x203a;" horiz-adv-x="679" d="M74 173l296 370l-296 370l99 74l394 -444l-394 -444z" />
<glyph unicode="&#x205f;" horiz-adv-x="514" />
<glyph unicode="&#x2122;" horiz-adv-x="1653" d="M49 1379v101h685v-101h-266v-639h-154v639h-265zM857 740v740h204l179 -520l183 520h179v-740h-144v559l-179 -509h-124l-177 516v-566h-121z" />
<glyph unicode="&#x25fc;" horiz-adv-x="1085" d="M0 0v1085h1085v-1085h-1085z" />
</font>
</defs>
</svg>
